<svg width="56" height="56" fill="none" xmlns="http://www.w3.org/2000/svg"><path fill-rule="evenodd" clip-rule="evenodd" d="M52.6 46.4c-.2 2-1.9 3.6-4 3.6H7.4c-2.1 0-3.8-1.5-4-3.6l-.042-.4h41.254a4 4 0 003.945-3.342L50 34h4l-1.4 12.4z" fill="#000" fill-opacity=".04"/><path fill-rule="evenodd" clip-rule="evenodd" d="M29 1a1 1 0 10-2 0v7a1 1 0 102 0V1zM14.936 3.959a1 1 0 00-1.286 1.532l5.362 4.5a1 1 0 101.286-1.532l-5.362-4.5zm27.537.123a1 1 0 00-1.409-.123l-5.362 4.5a1 1 0 101.285 1.532l5.363-4.5a1 1 0 00.123-1.409zM43.9 15c1.9 0 3.6 1.1 4.5 2.8L56 33l-.1 1-1.3 12.6c-.4 3.1-2.9 5.4-6 5.4H7.4c-3.1 0-5.7-2.4-6-5.4L.1 34 0 33l7.6-15.2c.9-1.7 2.6-2.8 4.5-2.8h31.8zm-31.8 2c-1.1 0-2.2.6-2.7 1.7L2.7 32H15c2.3 0 4.3 1.6 4.8 3.8.6 2.4 2.8 4.2 5.4 4.2h5.7c2.5 0 4.8-1.7 5.4-4.2.5-2.3 2.5-3.8 4.8-3.8h12.2l-6.7-13.3c-.5-1.1-1.6-1.7-2.7-1.7H12.1zm36.5 33c2.1 0 3.8-1.6 4-3.6L54 34H41.2c-1.4 0-2.6.9-2.9 2.2-.9 3.4-3.9 5.8-7.4 5.8h-5.7c-3.5 0-6.6-2.4-7.4-5.8-.4-1.3-1.5-2.2-2.9-2.2H2.1l1.3 12.4c.2 2.1 1.9 3.6 4 3.6h41.2z" fill="#000" fill-opacity=".22"/></svg>