<svg width="56" height="56" fill="none" xmlns="http://www.w3.org/2000/svg"><path fill-rule="evenodd" clip-rule="evenodd" d="M.5 32L0 33l.105 1 1.33 12.628A6 6 0 007.402 52h41.196a6 6 0 005.968-5.372L55.895 34 56 33l-.5-1-7.118-14.236A5 5 0 0043.91 15H12.09a5 5 0 00-4.472 2.764L.5 32zm2.236 0l6.67-13.342A3 3 0 0112.09 17h31.82a3 3 0 012.683 1.658l1.789-.894-1.789.894L53.263 32h-12.17a4.96 4.96 0 00-4.813 3.758A5.601 5.601 0 0130.846 40h-5.692c-2.57 0-4.81-1.75-5.434-4.242A4.96 4.96 0 0014.908 32H2.736zm-.62 2l1.308 12.419A4 4 0 007.402 50h41.196a4 4 0 003.979-3.581L53.884 34H41.092a2.96 2.96 0 00-2.872 2.242A7.6 7.6 0 0130.846 42h-5.692a7.6 7.6 0 01-7.374-5.758A2.96 2.96 0 0014.908 34H2.116zM28 0a1 1 0 011 1v7a1 1 0 11-2 0V1a1 1 0 011-1zM13.527 4.082a1 1 0 011.409-.123l5.362 4.5a1 1 0 01-1.285 1.532l-5.363-4.5a1 1 0 01-.123-1.409zm27.537-.123a1 1 0 111.286 1.532l-5.363 4.5a1 1 0 11-1.285-1.532l5.362-4.5z" fill="#000" fill-opacity=".22"/><path d="M54 46V34h-4l-1.443 8.658A4 4 0 0144.611 46H3l.894 1.789A4 4 0 007.472 50H50a4 4 0 004-4z" fill="#000" fill-opacity=".04"/></svg>