<svg width="56" height="56" fill="none" xmlns="http://www.w3.org/2000/svg"><mask id="a" maskUnits="userSpaceOnUse" x="2" y="5" width="52" height="46" fill="#000"><path fill="#fff" d="M2 5h52v46H2z"/><path fill-rule="evenodd" clip-rule="evenodd" d="M7.397 38.776C5.24 35.626 4 31.94 4 28 4 16.402 14.745 7 28 7s24 9.402 24 21-10.745 21-24 21c-5.347 0-10.286-1.53-14.275-4.117L5.5 47.5l1.897-8.724z"/></mask><path fill-rule="evenodd" clip-rule="evenodd" d="M7.397 38.776C5.24 35.626 4 31.94 4 28 4 16.402 14.745 7 28 7s24 9.402 24 21-10.745 21-24 21c-5.347 0-10.286-1.53-14.275-4.117L5.5 47.5l1.897-8.724z" fill="#000" fill-opacity=".04"/><path d="M7.397 38.776l1.65-1.13.487.712-.183.843-1.954-.425zm6.328 6.107l-.607-1.906.902-.287.793.515-1.088 1.678zM5.5 47.5l.606 1.906-3.295 1.048.735-3.379L5.5 47.5zM6 28c0 3.509 1.102 6.805 3.047 9.646l-3.3 2.26C3.376 36.446 2 32.37 2 28h4zM28 9C15.59 9 6 17.75 6 28H2C2 15.055 13.9 5 28 5v4zm22 19c0-10.25-9.59-19-22-19V5c14.1 0 26 10.055 26 23h-4zM28 47c12.41 0 22-8.75 22-19h4c0 12.945-11.9 23-26 23v-4zm-13.187-3.795C18.474 45.579 23.034 47 28 47v4c-5.728 0-11.046-1.64-15.363-4.439l2.176-3.356zm-9.92 2.39l8.225-2.618 1.213 3.812-8.225 2.617-1.212-3.812zM9.352 39.2l-1.897 8.724-3.908-.85 1.896-8.724 3.909.85z" fill="#000" fill-opacity=".22" mask="url(#a)"/><ellipse rx="20.5" ry="17.5" transform="matrix(-1 0 0 1 25.5 25.5)" fill="#fff"/><circle cx="16" cy="28" r="3" stroke="#000" stroke-opacity=".22" stroke-width="2"/><circle cx="28" cy="28" r="3" stroke="#000" stroke-opacity=".22" stroke-width="2"/><circle cx="40" cy="28" r="3" stroke="#000" stroke-opacity=".22" stroke-width="2"/></svg>