<svg width="56" height="56" fill="none" xmlns="http://www.w3.org/2000/svg"><path fill-rule="evenodd" clip-rule="evenodd" d="M4 28c0 3.94 1.24 7.626 3.397 10.776L5.5 47.5l8.225-2.617C17.715 47.47 22.653 49 28 49c13.255 0 24-9.402 24-21S41.255 7 28 7c-5.93 0-11.356 1.881-15.544 4.999C16 9.5 20.545 8 25.5 8 36.822 8 46 15.835 46 25.5S36.822 43 25.5 43 5 35.165 5 25.5c0-3.29 1.064-6.37 2.914-8.998C5.44 19.805 4 23.755 4 28z" fill="#000" fill-opacity=".04"/><path fill-rule="evenodd" clip-rule="evenodd" d="M28 49c-5.347 0-10.286-1.53-14.275-4.117L5.5 47.5l1.897-8.724C5.24 35.626 4 31.94 4 28 4 16.402 14.745 7 28 7s24 9.402 24 21-10.745 21-24 21zM2 28c0 4.065 1.192 7.875 3.264 11.171L2.81 50.454l10.64-3.385C17.617 49.558 22.628 51 28 51c14.1 0 26-10.055 26-23S42.1 5 28 5 2 15.055 2 28zm16 0a2 2 0 11-4 0 2 2 0 014 0zm2 0a4 4 0 11-8 0 4 4 0 018 0zm8 2a2 2 0 100-4 2 2 0 000 4zm0 2a4 4 0 100-8 4 4 0 000 8zm14-4a2 2 0 11-4 0 2 2 0 014 0zm2 0a4 4 0 11-8 0 4 4 0 018 0z" fill="#000" fill-opacity=".22"/></svg>