<svg width="56" height="56" fill="none" xmlns="http://www.w3.org/2000/svg"><g clip-path="url(#clip0)"><path d="M28 5C15.298 5 5 15.298 5 28s10.298 23 23 23 23-10.298 23-23S40.702 5 28 5z" fill="#000" fill-opacity=".04"/><path d="M28 4C14.746 4 4 14.746 4 28s10.746 24 24 24 24-10.746 24-24S41.254 4 28 4z" stroke="#000" stroke-opacity=".22" stroke-width="2" stroke-miterlimit="10"/><path d="M25.5 6C14.73 6 6 14.73 6 25.5S14.73 45 25.5 45 45 36.27 45 25.5 36.27 6 25.5 6z" fill="#fff"/><circle cx="36" cy="23" r="3" stroke="#000" stroke-opacity=".22" stroke-width="2"/><circle cx="20" cy="23" r="3" stroke="#000" stroke-opacity=".22" stroke-width="2"/><path d="M39.065 39.662c.439-.33.529-.957.17-1.372a14.849 14.849 0 00-22.3-.193c-.367.41-.287 1.037.146 1.375.433.339 1.055.259 1.425-.147a12.862 12.862 0 0119.136.165c.363.412.984.503 1.423.172z" fill="#000" fill-opacity=".22"/></g><defs><clipPath id="clip0"><path fill="#fff" d="M0 0h56v56H0z"/></clipPath></defs></svg>