<svg width="56" height="56" fill="none" xmlns="http://www.w3.org/2000/svg">
  <path fill-rule="evenodd" clip-rule="evenodd"
    d="M28 3C14.193 3 3 14.193 3 28s11.193 25 25 25 25-11.193 25-25S41.807 3 28 3zm10.623 36.6c.766-.318 1.138-1.202.734-1.926a13 13 0 00-22.714 0c-.404.724-.032 1.608.734 1.926.766.317 1.636-.055 2.064-.765a9.998 9.998 0 0117.118 0c.428.71 1.298 1.082 2.064.765zM24 22.5a3.5 3.5 0 11-7 0 3.5 3.5 0 017 0zm15 0a3.5 3.5 0 11-7 0 3.5 3.5 0 017 0z"
    data-mono-a="A150" /></svg>
