<svg width="56" height="56" fill="none" xmlns="http://www.w3.org/2000/svg"><path fill-rule="evenodd" clip-rule="evenodd" d="M14 9.751A22.9 22.9 0 0128 5c12.702 0 23 10.298 23 23S40.702 51 28 51 5 40.702 5 28a22.9 22.9 0 014.751-14A19.412 19.412 0 006 25.5C6 36.27 14.73 45 25.5 45S45 36.27 45 25.5 36.27 6 25.5 6C21.2 6 17.224 7.392 14 9.751z" fill="#000" fill-opacity=".04"/><path fill-rule="evenodd" clip-rule="evenodd" d="M28 3C14.193 3 3 14.193 3 28s11.193 25 25 25 25-11.193 25-25S41.807 3 28 3zm0 2C15.298 5 5 15.298 5 28s10.298 23 23 23 23-10.298 23-23S40.702 5 28 5zm10 18a2 2 0 11-4 0 2 2 0 014 0zm2 0a4 4 0 11-8 0 4 4 0 018 0zm-20 2a2 2 0 100-4 2 2 0 000 4zm0 2a4 4 0 100-8 4 4 0 000 8zm19.235 11.29c.359.415.269 1.041-.17 1.372-.439.33-1.06.24-1.423-.172a12.86 12.86 0 00-19.136-.165c-.37.406-.992.486-1.425.147-.433-.338-.512-.965-.146-1.375a14.85 14.85 0 0122.3.193z" fill="#000" fill-opacity=".22"/></svg>