<svg width="56" height="56" fill="none" xmlns="http://www.w3.org/2000/svg"><path d="M10 12a7 7 0 017-7h17c1.015 0 1.99.403 2.707 1.121l8.172 8.172A3.829 3.829 0 0146 17v27a7 7 0 01-7 7H17a7 7 0 01-7-7V12z" fill="#000" fill-opacity=".04" stroke="#fff" stroke-width="2"/><path d="M11 10a4 4 0 014-4h21l9 9v4h-5v21a5 5 0 01-5 5H11V10z" fill="#fff"/><path d="M10 12a7 7 0 017-7h16c1.015 0 1.99.403 2.707 1.121l9.172 9.172A3.829 3.829 0 0146 18v26a7 7 0 01-7 7H17a7 7 0 01-7-7V12z" stroke="#000" stroke-opacity=".22" stroke-width="2"/><path fill-rule="evenodd" clip-rule="evenodd" d="M28.101 20c-1.207 0-2.18.316-2.939.84-.752.52-1.238 1.202-1.55 1.849a6.352 6.352 0 00-.535 1.735 6.395 6.395 0 00-.076.743v.052l-.001.017V25.245c0 .001 0 .002 1 .002h-1a1 1 0 002 .004v-.02l.006-.098a4.355 4.355 0 01.408-1.575c.2-.415.483-.794.884-1.072.394-.271.96-.486 1.803-.486.812 0 1.402.241 1.828.588.433.354.749.864.922 1.474.356 1.253.065 2.754-.77 3.713-2.19 2.515-2.788 3.697-3.06 5.024a1 1 0 101.959.402c.168-.82.494-1.684 2.61-4.112 1.317-1.513 1.71-3.728 1.185-5.573-.266-.939-.782-1.824-1.581-2.477C30.385 20.38 29.339 20 28.1 20zM28 38a1 1 0 100-2 1 1 0 000 2z" fill="#000" fill-opacity=".22"/></svg>