<svg width="56" height="56" viewBox="0 0 56 56" fill="none" xmlns="http://www.w3.org/2000/svg">
  <path fill-rule="evenodd" clip-rule="evenodd"
    d="M42 22.0829V41C42 43.7614 39.7615 46 37 46H9.08301C9.55909 48.8377 12.0271 51 15 51H41C44.3138 51 47 48.3137 47 45V28C47 25.027 44.8378 22.559 42 22.0829Z"
    data-mono-a="A50" />
  <path fill-rule="evenodd" clip-rule="evenodd"
    d="M39 20V15C39 8.92487 34.0751 4 28 4C21.9249 4 17 8.92487 17 15V20H39ZM41 20C45.4183 20 49 23.5817 49 28V45C49 49.4183 45.4183 53 41 53H15C10.5817 53 7 49.4183 7 45V28C7 23.5817 10.5817 20 15 20V15C15 7.8203 20.8203 2 28 2C35.1797 2 41 7.8203 41 15V20ZM47 28C47 24.6863 44.3137 22 41 22H15C11.6863 22 9 24.6863 9 28V45C9 48.3137 11.6863 51 15 51H41C44.3137 51 47 48.3137 47 45V28ZM27 37.0437V42C27 42.5523 27.4477 43 28 43C28.5523 43 29 42.5523 29 42V37.0437L29.9985 36.4661C31.1994 35.7715 32 34.478 32 33C32 30.7909 30.2091 29 28 29C25.7909 29 24 30.7909 24 33C24 34.478 24.8006 35.7715 26.0015 36.4661L27 37.0437ZM22 33C22 29.6863 24.6863 27 28 27C31.3137 27 34 29.6863 34 33C34 35.2208 32.7934 37.1599 31 38.1973V42C31 43.6569 29.6569 45 28 45C26.3431 45 25 43.6569 25 42V38.1973C23.2066 37.1599 22 35.2208 22 33Z"
    data-mono-a="A400" />
</svg>
