<svg width="56" height="56" fill="none" xmlns="http://www.w3.org/2000/svg"><path fill-rule="evenodd" clip-rule="evenodd" d="M25 5a19.913 19.913 0 00-12.203 4.153A16.425 16.425 0 0122.5 6C31.612 6 39 13.388 39 22.5S31.612 39 22.5 39 6 31.612 6 22.5c0-3.627 1.17-6.98 3.153-9.703A19.913 19.913 0 005 25c0 11.045 8.955 20 20 20s20-8.955 20-20S36.045 5 25 5zm28.37 48.37a2.121 2.121 0 000-3l-5.944-5.944a2.121 2.121 0 00-3 3l5.943 5.943a2.121 2.121 0 003 0z" fill="#000" fill-opacity=".04"/><path fill-rule="evenodd" clip-rule="evenodd" d="M25 3C12.85 3 3 12.85 3 25s9.85 22 22 22a21.92 21.92 0 0014.833-5.753l2.558 2.559a4.123 4.123 0 00.621 5.035l5.943 5.942a4.121 4.121 0 005.828-5.828l-5.943-5.943a4.123 4.123 0 00-5.034-.62l-2.559-2.559A21.92 21.92 0 0047 25c0-12.15-9.85-22-22-22zm0 2C13.955 5 5 13.955 5 25s8.955 20 20 20 20-8.955 20-20S36.045 5 25 5zm28.369 48.37a2.121 2.121 0 000-3l-5.943-5.944a2.121 2.121 0 00-3 3l5.943 5.943a2.121 2.121 0 003 0zM22.162 16.84c.76-.524 1.732-.84 2.939-.84 1.238 0 2.284.379 3.093 1.04.8.652 1.315 1.537 1.581 2.476.524 1.845.132 4.06-1.186 5.573-2.115 2.428-2.441 3.293-2.61 4.112a1 1 0 11-1.959-.402c.273-1.327.87-2.51 3.061-5.024.835-.959 1.126-2.46.77-3.713-.173-.61-.489-1.12-.922-1.474-.425-.347-1.016-.588-1.828-.588-.843 0-1.41.215-1.803.486-.401.278-.684.657-.885 1.072a4.355 4.355 0 00-.362 1.184 4.401 4.401 0 00-.05.49L22 21.25v.001a1 1 0 01-2-.004h1l-1-.001V21.219c0-.013 0-.03.002-.052 0-.043.004-.1.008-.172.01-.141.03-.338.067-.57a6.352 6.352 0 01.535-1.736c.312-.647.798-1.33 1.55-1.848zM26 33a1 1 0 11-2 0 1 1 0 012 0z" fill="#000" fill-opacity=".22"/></svg>