<svg width="56" height="56" fill="none" xmlns="http://www.w3.org/2000/svg">
  <path fill-rule="evenodd" clip-rule="evenodd"
    d="M25 3C12.85 3 3 12.85 3 25s9.85 22 22 22a21.91 21.91 0 0014.078-5.093l2.885 2.885a4.12 4.12 0 001.049 4.049l5.943 5.942a4.121 4.121 0 005.828-5.828l-5.943-5.943a4.12 4.12 0 00-4.048-1.048l-2.886-2.886A21.91 21.91 0 0047 25c0-12.15-9.85-22-22-22zm-3.5 18c0-1.141 1.474-3.333 4.782-2.541 1.36.326 1.983 1.193 2.098 2.074.12.918-.286 2.129-1.604 3.077-1.355.976-2.084 1.977-2.452 2.846a4.096 4.096 0 00-.304 1.103 3.052 3.052 0 00-.015.568l.003.023v.01l.001.005v.003s0 .002 1.491-.168l-1.49.17a1.5 1.5 0 002.988-.246v-.004c.005-.036.022-.138.088-.294.127-.3.474-.884 1.442-1.58 2.093-1.507 3.106-3.749 2.827-5.9-.285-2.188-1.878-4.007-4.375-4.605-5.033-1.204-8.48 2.217-8.48 5.459a1.5 1.5 0 003 0zm4 13a1.5 1.5 0 100-3 1.5 1.5 0 000 3z"
    data-mono-a="A150" /></svg>
