<svg width="56" height="56" fill="none" xmlns="http://www.w3.org/2000/svg"><path d="M25 5C13.955 5 5 13.955 5 25s8.955 20 20 20 20-8.955 20-20S36.045 5 25 5z" fill="#000" fill-opacity=".04"/><path d="M25 4C13.402 4 4 13.402 4 25s9.402 21 21 21 21-9.402 21-21S36.598 4 25 4z" stroke="#000" stroke-opacity=".22" stroke-width="2" stroke-miterlimit="10"/><path d="M22.5 6C13.388 6 6 13.388 6 22.5S13.388 39 22.5 39 39 31.612 39 22.5 31.612 6 22.5 6z" fill="#fff"/><path d="M43 43l-2.5-2.5" stroke="#000" stroke-opacity=".22" stroke-width="2"/><rect x="54.869" y="51.869" width="4.243" height="12.647" rx="2.121" transform="rotate(135 54.87 51.87)" fill="#000" fill-opacity=".04"/><rect x="56.283" y="51.869" width="6.243" height="14.647" rx="3.121" transform="rotate(135 56.283 51.87)" stroke="#000" stroke-opacity=".22" stroke-width="2"/><path fill-rule="evenodd" clip-rule="evenodd" d="M25.101 16c-1.207 0-2.18.316-2.939.84-.752.52-1.238 1.202-1.55 1.849a6.352 6.352 0 00-.535 1.735 6.395 6.395 0 00-.076.743v.052l-.001.017V21.245c0 .001 0 .002 1 .002h-1a1 1 0 002 .004v-.02l.006-.098a4.355 4.355 0 01.408-1.575c.2-.415.483-.794.884-1.072.394-.271.96-.486 1.803-.486.812 0 1.402.241 1.828.588.433.354.749.864.922 1.474.356 1.253.065 2.754-.77 3.713-2.19 2.515-2.788 3.697-3.06 5.024a1 1 0 101.959.402c.168-.82.494-1.684 2.61-4.112 1.317-1.513 1.71-3.728 1.185-5.573-.266-.939-.782-1.824-1.581-2.477C27.385 16.38 26.339 16 25.1 16zM25 34a1 1 0 100-2 1 1 0 000 2z" fill="#000" fill-opacity=".22"/></svg>