<svg width="19" height="14" viewBox="0 0 19 14" fill="none" xmlns="http://www.w3.org/2000/svg">
<path fill-rule="evenodd" clip-rule="evenodd" d="M0 5.00102C0 4.44874 0.447715 4.00102 1 4.00102H4L7.29303 0.709307C7.92306 0.0795363 9 0.525748 9 1.41656V12.5839C9 13.4747 7.92306 13.9209 7.29304 13.2911L4 9.99942H1C0.447715 9.99942 0 9.55171 0 8.99942V5.00102ZM11.2903 4.70708C10.9032 4.31656 10.9032 3.68339 11.2903 3.29287C11.6775 2.90234 12.3051 2.90234 12.6922 3.29287L14.6344 5.2521L16.5765 3.29287C16.9636 2.90234 17.5912 2.90234 17.9784 3.29287C18.3655 3.68339 18.3655 4.31656 17.9784 4.70708L16.0362 6.66632L17.9784 8.62554C18.3655 9.01606 18.3655 9.64923 17.9784 10.0398C17.5912 10.4303 16.9636 10.4303 16.5765 10.0398L14.6344 8.08053L12.6922 10.0398C12.3051 10.4303 11.6775 10.4303 11.2903 10.0398C10.9032 9.64923 10.9032 9.01606 11.2903 8.62554L13.2325 6.66632L11.2903 4.70708Z" fill="#000" fill-opacity=".54"/>
</svg>
