<svg width="20" height="18" viewBox="0 0 20 18" fill="none" xmlns="http://www.w3.org/2000/svg">
<path fill-rule="evenodd" clip-rule="evenodd" d="M4.55334 17.1648C4.2191 17.6044 3.58767 17.6933 3.18357 17.3169C1.69948 15.9343 0.664689 14.1267 0.2294 12.1296C-0.277171 9.80538 0.0613601 7.37673 1.18421 5.27966C2.30706 3.1826 4.14069 1.55448 6.35587 0.687632C8.25935 -0.0572416 10.3374 -0.198095 12.3108 0.270632C12.8481 0.398262 13.1242 0.973061 12.9436 1.49497C12.7629 2.01688 12.1939 2.28688 11.6535 2.17272C10.1335 1.85161 8.54487 1.97871 7.0847 2.55011C5.31255 3.24359 3.84565 4.54608 2.94737 6.22373C2.04909 7.90138 1.77827 9.8443 2.18352 11.7037C2.51744 13.2357 3.29232 14.6283 4.40224 15.7153C4.79681 16.1018 4.88757 16.7251 4.55334 17.1648ZM16.7071 4.70711C17.0976 4.31658 17.0976 3.68342 16.7071 3.29289C16.3166 2.90237 15.6834 2.90237 15.2929 3.29289L10.5181 8.06774C10.3528 8.02356 10.1792 8 10 8C8.89545 8 8.00002 8.89543 8.00002 10C8.00002 11.1046 8.89545 12 10 12C11.1046 12 12 11.1046 12 10C12 9.82084 11.9765 9.64718 11.9323 9.48196L16.7071 4.70711ZM16.7964 17.3355C16.3912 17.7109 15.7601 17.6202 15.427 17.1796C15.094 16.7391 15.1865 16.116 15.5821 15.7307C16.5968 14.7423 17.3354 13.4976 17.7139 12.1202C18.0925 10.7429 18.0939 9.29549 17.7269 7.92737C17.5838 7.39394 17.8228 6.81118 18.3342 6.6027C18.8456 6.39423 19.4344 6.6389 19.5908 7.16859C20.1164 8.94897 20.1379 10.8476 19.6424 12.6503C19.147 14.4529 18.1581 16.0739 16.7964 17.3355Z" fill="#fff" fill-opacity=".86"/>
</svg>
