<svg width="16" height="14" viewBox="0 0 16 14" fill="none" xmlns="http://www.w3.org/2000/svg">
<path fill-rule="evenodd" clip-rule="evenodd" d="M0 5.00102C0 4.44874 0.447715 4.00102 1 4.00102H4L7.29303 0.709307C7.92306 0.0795363 9 0.525748 9 1.41656V12.5839C9 13.4747 7.92306 13.9209 7.29304 13.2911L4 9.99942H1C0.447715 9.99942 0 9.55171 0 8.99942V5.00102ZM12 11.0415C12 10.6846 12.1967 10.3622 12.4768 10.141C13.4046 9.40848 14 8.27372 14 6.99988C14 5.72604 13.4046 4.59128 12.4768 3.85875C12.1967 3.63754 12 3.31518 12 2.95822V2.75537C12 2.06522 12.6867 1.58931 13.2653 1.9654C14.9114 3.03522 16 4.89042 16 6.99988C16 9.10934 14.9114 10.9645 13.2653 12.0344C12.6867 12.4105 12 11.9345 12 11.2444V11.0415ZM10 8.99988C11.1046 8.99988 12 8.10445 12 6.99988C12 5.89531 11.1046 4.99988 10 4.99988V8.99988Z" fill="#000" fill-opacity=".54"/>
</svg>
