<svg width="56" height="56" fill="none" xmlns="http://www.w3.org/2000/svg">
  <path fill-rule="evenodd" clip-rule="evenodd"
    d="M46.895 17c.07.326.105.661.105 1v26a8 8 0 01-8 8H17a8 8 0 01-8-8V12a8 8 0 018-8h16a4.827 4.827 0 013.414 1.414l9.172 9.172A4.828 4.828 0 0146.896 17zM33 7.183c.372.14.714.359 1 .645L43.172 17c.286.287.505.628.645 1H37a4 4 0 01-4-4V7.183zm-3.718 18.276c-3.308-.792-4.782 1.4-4.782 2.541a1.5 1.5 0 01-3 0c0-3.242 3.447-6.663 8.48-5.459 2.497.598 4.09 2.417 4.375 4.605.28 2.151-.734 4.393-2.827 5.9-.968.696-1.315 1.28-1.442 1.58a1.126 1.126 0 00-.087.294v.004a1.5 1.5 0 01-2.99.246L28.5 35c-1.49.17-1.49.169-1.49.168v-.003l-.001-.005-.002-.01-.002-.023a1.784 1.784 0 01-.008-.19c0-.103.006-.23.023-.378.037-.298.122-.675.304-1.103.368-.869 1.096-1.87 2.452-2.846 1.318-.948 1.723-2.16 1.604-3.077-.115-.881-.738-1.748-2.098-2.074zM30 39.5a1.5 1.5 0 11-3 0 1.5 1.5 0 013 0z"
    data-mono-a="A150" /></svg>
