<svg width="56" height="56" fill="none" xmlns="http://www.w3.org/2000/svg">
  <path fill-rule="evenodd" clip-rule="evenodd"
    d="M3.292 20.175C1.957 18.872 1 17.23 1 15.31c0-2.077 1.117-3.824 2.63-5.18 1.512-1.356 3.588-2.487 5.983-3.395C14.417 4.913 20.918 4 28 4c7.082 0 13.583.913 18.387 2.735 2.395.908 4.47 2.039 5.984 3.395C53.882 11.486 55 13.233 55 15.31c0 1.92-.956 3.56-2.29 4.864L35.762 37.072A6 6 0 0034 41.32V47a6 6 0 01-2.4 4.8l-3.2 2.4C25.763 56.178 22 55 22 51v-9.68a6 6 0 00-1.763-4.248L3.292 20.175zM28 19c10.493 0 19-2.462 19-5.5S38.493 8 28 8 9 10.462 9 13.5 17.507 19 28 19z"
    data-mono-a="A150" /></svg>
