<svg width="56" height="56" fill="none" xmlns="http://www.w3.org/2000/svg">
  <path fill-rule="evenodd" clip-rule="evenodd"
    d="M54.202 25.52c1.609-1.074 2.056-3.262.827-4.755a34.999 34.999 0 00-54.027-.039c-1.23 1.492-.787 3.68.82 4.756 1.608 1.076 3.768.627 5.035-.834a27.995 27.995 0 0142.311.03c1.266 1.463 3.425 1.915 5.034.841zm-8.74 6.942c1.572-1.128 1.947-3.337.61-4.735a25.002 25.002 0 00-36.204.062c-1.332 1.403-.95 3.61.626 4.733 1.575 1.123 3.742.724 5.148-.604a17.995 17.995 0 0124.67-.042c1.41 1.323 3.58 1.714 5.15.586zm-6.56 4.236c1.329 1.406.73 3.586-.945 4.553-1.675.967-3.796.298-5.382-.808a7.996 7.996 0 00-9.15 0c-1.587 1.106-3.708 1.775-5.383.808-1.675-.967-2.273-3.147-.945-4.553a15 15 0 0121.805 0zM28 51a4 4 0 100-8 4 4 0 000 8z"
    data-mono-a="A150" /></svg>
