<svg width="56" height="56" fill="none" xmlns="http://www.w3.org/2000/svg">
  <path fill-rule="evenodd" clip-rule="evenodd"
    d="M32.975 8.498C39.89 10.265 45 16.536 45 24v10.914a3 3 0 00.695 1.92l3.114 3.737A5.14 5.14 0 0144.86 49H33a5 5 0 01-10 0H11.14a5.14 5.14 0 01-3.949-8.43l3.114-3.736a3 3 0 00.695-1.92V24c0-7.464 5.111-13.735 12.025-15.502a5 5 0 019.95 0zM21 22a2 2 0 012-2h10a2 2 0 011.48 3.345L27.52 31H33a2 2 0 110 4H23a2 2 0 01-1.48-3.345L28.48 24H23a2 2 0 01-2-2z"
    data-mono-a="A150" /></svg>
