<svg width="56" height="56" fill="none" xmlns="http://www.w3.org/2000/svg">
  <path fill-rule="evenodd" clip-rule="evenodd"
    d="M.0392 5.6077c.2166-1.0832 1.2703-1.7856 2.3534-1.569l1.742.3484c2.7636.5527 4.9261 2.7088 5.4871 5.4707l.6383 3.1421h35.3212c3.8058 0 6.6501 3.4978 5.8739 7.2237l-3.0017 14.4079c-.7729 3.7098-4.0424 6.3684-7.8318 6.3684H18.4042c-3.8045 0-7.0826-2.6792-7.8399-6.4075L5.7018 10.654a3 3 0 00-2.3516-2.3445l-1.742-.3484C.525 7.7444-.1775 6.6908.0392 5.6077zM24 48.5c0 2.4853-2.0147 4.5-4.5 4.5S15 50.9853 15 48.5s2.0147-4.5 4.5-4.5 4.5 2.0147 4.5 4.5zm19 0c0 2.4853-2.0147 4.5-4.5 4.5S34 50.9853 34 48.5s2.0147-4.5 4.5-4.5 4.5 2.0147 4.5 4.5z"
    data-mono-a="A150" /></svg>
