<svg width="56" height="56" fill="none" xmlns="http://www.w3.org/2000/svg"><path fill-rule="evenodd" clip-rule="evenodd" d="M45 19h-5v21a5 5 0 01-5 5H11.083A6.002 6.002 0 0017 50h22a6 6 0 006-6V19zM17 52a8.001 8.001 0 000 0z" fill="#000" fill-opacity=".04"/><path fill-rule="evenodd" clip-rule="evenodd" d="M32 6v7a6 6 0 006 6h7v25a6 6 0 01-6 6H17a6 6 0 01-6-6V12a6 6 0 016-6h15zm15 12a4.826 4.826 0 00-1.414-3.414l-9.172-9.172A4.828 4.828 0 0033 4H17a8 8 0 00-8 8v32a8 8 0 008 8h22a8 8 0 008-8V18zM35 6.828a2.828 2.828 0 00-1-.645V13a4 4 0 004 4h6.817a2.828 2.828 0 00-.645-1L35 6.828zm-9.838 14.013c.76-.525 1.732-.841 2.939-.841 1.238 0 2.284.379 3.093 1.04.8.652 1.315 1.537 1.581 2.476.524 1.845.132 4.06-1.186 5.573-2.115 2.428-2.441 3.293-2.61 4.112a1 1 0 11-1.959-.402c.273-1.327.87-2.51 3.061-5.024.835-.959 1.126-2.46.77-3.713-.173-.61-.489-1.12-.922-1.474-.425-.347-1.016-.588-1.828-.588-.843 0-1.41.215-1.803.486-.401.278-.684.657-.885 1.072a4.355 4.355 0 00-.362 1.184 4.401 4.401 0 00-.05.49L25 25.25a1 1 0 01-2-.003c1.01 0 1.061 0 0 0v-.028c0-.013 0-.03.002-.052 0-.043.004-.1.008-.172.01-.141.03-.338.067-.57a6.352 6.352 0 01.535-1.736c.312-.647.798-1.33 1.55-1.848zM29 37a1 1 0 11-2 0 1 1 0 012 0z" fill="#000" fill-opacity=".22"/></svg>