<svg width="56" height="56" fill="none" xmlns="http://www.w3.org/2000/svg">
  <path fill-rule="evenodd" clip-rule="evenodd"
    d="M29.9997 2c0-1.1046-.8954-2-2-2s-2 .8954-2 2v7c0 1.1046.8954 2 2 2s2-.8954 2-2V2zm18.3996 14.8c-.9-1.7-2.6-2.8-4.5-2.8h-31.8c-1.9 0-3.6 1.1-4.5 2.8l-5.708 11.4166a7.9998 7.9998 0 00-.842 3.7767L1.0994 34l.3 11.6c.3 3 2.9 5.4 6 5.4h41.2c3.1 0 5.6-2.3 6-5.4l.3-11.6.0504-2.0057a8.0012 8.0012 0 00-.8422-3.7786L48.3993 16.8zm-37 2.9c.5-1.1 1.6-1.7 2.7-1.7h27.8c1.1 0 2.2.6 2.7 1.7.3614.7949 3.1772 6.8645 4.7113 10.17.4615.9943-.2653 2.13-1.3615 2.13h-6.8498c-2.3 0-4.3 1.5-4.8 3.8-.6 2.5-2.9 4.2-5.4 4.2h-5.7c-2.6 0-4.8-1.8-5.4-4.2-.5-2.2-2.5-3.8-4.8-3.8H8.0477c-1.0957 0-1.8217-1.1366-1.361-2.1307L11.3993 19.7zm.7116-16.089c.781-.7811 2.0474-.7811 2.8284 0l3.974 3.9739c.781.781.781 2.0474 0 2.8284-.7811.781-2.0474.781-2.8285 0l-3.9739-3.974c-.7811-.781-.7811-2.0473 0-2.8284zm31.7776 2.8284c.7811-.781.7811-2.0474 0-2.8285-.781-.781-2.0473-.781-2.8284 0l-3.9739 3.974c-.7811.781-.7811 2.0474 0 2.8284.781.781 2.0474.781 2.8284 0l3.9739-3.974z"
    data-mono-a="A150" /></svg>
