<svg width="56" height="56" fill="none" xmlns="http://www.w3.org/2000/svg">
  <path fill-rule="evenodd" clip-rule="evenodd"
    d="M7.43 4.539a2.44 2.44 0 00-.167 3.447l3.921 4.318c-3.906 2.14-7.36 5.001-10.182 8.422-1.23 1.492-.787 3.68.82 4.756 1.608 1.076 3.768.627 5.035-.834a27.997 27.997 0 019.205-6.971l3.456 3.806a25 25 0 00-9.65 6.306c-1.332 1.403-.95 3.61.626 4.733 1.575 1.123 3.742.724 5.148-.604a17.995 17.995 0 019.152-4.626l4.312 4.749A14.982 14.982 0 0020.5 34.01a15 15 0 00-3.403 2.688c-1.328 1.406-.73 3.586.945 4.553 1.675.967 3.796.298 5.383-.808a7.996 7.996 0 019.15 0c1.482 1.034 3.432 1.686 5.048.977l4.373 4.816a2.44 2.44 0 003.614-3.281L10.877 4.705a2.44 2.44 0 00-3.448-.166zm22.596 15.543l11.426 12.583c1.287.635 2.82.652 4.01-.203 1.572-1.128 1.947-3.337.61-4.735a25 25 0 00-16.046-7.645zM19.914 8.947l5.6 6.167a27.996 27.996 0 0123.654 9.564c1.266 1.463 3.425 1.915 5.034.841 1.609-1.073 2.056-3.26.827-4.754A35 35 0 0019.914 8.947zM28 51a4 4 0 100-8 4 4 0 000 8z"
    data-mono-a="A150" /></svg>
