<svg width="32" height="40" fill="none" xmlns="http://www.w3.org/2000/svg"><mask id="a" fill="#fff"><path d="M0 5a5 5 0 015-5h16.5L32 10.5V35a5 5 0 01-5 5H5a5 5 0 01-5-5V5z"/></mask><path d="M0 5a5 5 0 015-5h16.5L32 10.5V35a5 5 0 01-5 5H5a5 5 0 01-5-5V5z" fill="#fff"/><path d="M21 0v7.5h1V0h-1zm3.5 11H32v-1h-7.5v1zM21 7.5a3.5 3.5 0 003.5 3.5v-1A2.5 2.5 0 0122 7.5h-1zm.5-7.5l.707-.707L21.914-1H21.5v1zM32 10.5h1v-.414l-.293-.293L32 10.5zM27 39H5v2h22v-2zM1 35V5h-2v30h2zM5 1h16.5v-2H5v2zm26 9.5V35h2V10.5h-2zM20.793.707l10.5 10.5 1.414-1.414-10.5-10.5L20.793.707zM5 39a4 4 0 01-4-4h-2a6 6 0 006 6v-2zm22 2a6 6 0 006-6h-2a4 4 0 01-4 4v2zM1 5a4 4 0 014-4v-2a6 6 0 00-6 6h2z" fill="#000" fill-opacity=".08" mask="url(#a)"/></svg>