<svg width="32" height="40" viewBox="0 0 32 40" fill="none" xmlns="http://www.w3.org/2000/svg">
<path d="M0 4C0 1.79086 1.79086 0 4 0H22.7574C23.553 0 24.3161 0.316071 24.8787 0.87868L31.1213 7.12132C31.6839 7.68393 32 8.44699 32 9.24264V36C32 38.2091 30.2091 40 28 40H4C1.79086 40 0 38.2091 0 36V4Z" fill="black" fill-opacity="0.08"/>
<path d="M23.5858 2.58579L29.4142 8.41421C29.7893 8.78929 30 9.29799 30 9.82843V10H25C23.3431 10 22 8.65685 22 7V2H22.1716C22.702 2 23.2107 2.21071 23.5858 2.58579Z" fill="white" fill-opacity="0.54"/>
<path d="M20 21.5L16 25.5M16 25.5L12 21.5M16 25.5V16" stroke="black" stroke-opacity="0.38" stroke-width="2" stroke-linecap="round"/>
</svg>
